<mxfile host="app.diagrams.net" agent="Mozilla/5.0 (Windows NT 10.0; Win64; x64) AppleWebKit/537.36 (KHTML, like Gecko) Chrome/136.0.0.0 Safari/537.36" version="27.0.8">
  <diagram name="Страница — 1" id="Hlc0T5OV5nTlnzMZ5ySf">
    <mxGraphModel dx="2216" dy="924" grid="1" gridSize="10" guides="1" tooltips="1" connect="1" arrows="1" fold="1" page="1" pageScale="1" pageWidth="827" pageHeight="1169" math="0" shadow="0">
      <root>
        <mxCell id="0" />
        <mxCell id="1" parent="0" />
        <mxCell id="ZbcpjQBcdrtAO-jrBeKX-1" value="&#xa;&lt;div style=&quot;box-sizing: border-box; position: relative; display: flex; flex-direction: column; min-width: 0px; overflow-wrap: break-word; background-color: rgb(255, 255, 255); background-clip: border-box; border: 1px solid rgba(0, 0, 0, 0.125); border-radius: 0.25rem; margin-bottom: 1rem !important; color: rgb(51, 51, 51); font-family: -apple-system, BlinkMacSystemFont, &amp;quot;Segoe UI&amp;quot;, Roboto, &amp;quot;Helvetica Neue&amp;quot;, Arial, &amp;quot;Noto Sans&amp;quot;, sans-serif, &amp;quot;Apple Color Emoji&amp;quot;, &amp;quot;Segoe UI Emoji&amp;quot;, &amp;quot;Segoe UI Symbol&amp;quot;, &amp;quot;Noto Color Emoji&amp;quot;; font-size: 16px; font-style: normal; font-variant-ligatures: normal; font-variant-caps: normal; font-weight: 400; letter-spacing: normal; orphans: 2; text-align: left; text-indent: 0px; text-transform: none; widows: 2; word-spacing: 0px; -webkit-text-stroke-width: 0px; white-space: normal; text-decoration-thickness: initial; text-decoration-style: initial; text-decoration-color: initial;&quot; class=&quot;card mb-3&quot;&gt;&lt;div style=&quot;box-sizing: border-box; flex: 1 1 auto; min-height: 1px; padding: 1.25rem;&quot; class=&quot;card-body&quot;&gt;&lt;div style=&quot;box-sizing: border-box; margin-bottom: 0.75rem;&quot; class=&quot;card-title&quot;&gt;&lt;span style=&quot;box-sizing: border-box;&quot; class=&quot;date&quot;&gt;&lt;i style=&quot;box-sizing: border-box; display: inline-block; font-style: normal; font-variant: normal; font-size-adjust: none; font-kerning: auto; font-optical-sizing: auto; font-feature-settings: normal; font-variation-settings: normal; font-weight: normal; font-stretch: normal; line-height: 1; font-family: FontAwesome; font-size: inherit; text-rendering: auto; -webkit-font-smoothing: antialiased;&quot; class=&quot;fa fa-calendar&quot;&gt;&lt;/i&gt;&lt;span&gt;&amp;nbsp;&lt;/span&gt;22.05.2025&lt;/span&gt;&lt;div style=&quot;box-sizing: border-box;&quot; class=&quot;actions&quot;&gt;&lt;a style=&quot;box-sizing: border-box; color: rgb(0, 123, 255); text-decoration: none !important; background-color: transparent; display: inline-block; font-weight: 400; text-align: center; vertical-align: middle; user-select: none; border: 1px solid rgb(0, 123, 255); padding: 0.25rem 0.5rem; font-size: 0.875rem; line-height: 1.5; border-radius: 0.2rem; transition: color 0.15s ease-in-out, background-color 0.15s ease-in-out, border-color 0.15s ease-in-out, box-shadow 0.15s ease-in-out; cursor: pointer;&quot; href=&quot;http://127.0.0.1:8000/exlog/log/10/&quot; title=&quot;Подробности&quot; class=&quot;btn btn-outline-primary btn-sm&quot;&gt;&lt;i style=&quot;box-sizing: border-box; display: inline-block; font-style: normal; font-variant: normal; font-size-adjust: none; font-kerning: auto; font-optical-sizing: auto; font-feature-settings: normal; font-variation-settings: normal; font-weight: normal; font-stretch: normal; line-height: 1; font-family: FontAwesome; font-size: inherit; text-rendering: auto; -webkit-font-smoothing: antialiased;&quot; class=&quot;fa fa-list&quot;&gt;&lt;/i&gt;&lt;/a&gt;&lt;span&gt;&amp;nbsp;&lt;/span&gt;&lt;a style=&quot;box-sizing: border-box; color: rgb(40, 167, 69); text-decoration: none !important; background-color: transparent; display: inline-block; font-weight: 400; text-align: center; vertical-align: middle; user-select: none; border: 1px solid rgb(40, 167, 69); padding: 0.25rem 0.5rem; font-size: 0.875rem; line-height: 1.5; border-radius: 0.2rem; transition: color 0.15s ease-in-out, background-color 0.15s ease-in-out, border-color 0.15s ease-in-out, box-shadow 0.15s ease-in-out; cursor: pointer;&quot; href=&quot;http://127.0.0.1:8000/exlog/log/10/addexercise/&quot; title=&quot;Добавить упражнение&quot; class=&quot;btn btn-outline-success btn-sm&quot;&gt;&lt;i style=&quot;box-sizing: border-box; display: inline-block; font-style: normal; font-variant: normal; font-size-adjust: none; font-kerning: auto; font-optical-sizing: auto; font-feature-settings: normal; font-variation-settings: normal; font-weight: normal; font-stretch: normal; line-height: 1; font-family: FontAwesome; font-size: inherit; text-rendering: auto; -webkit-font-smoothing: antialiased;&quot; class=&quot;fa fa-plus&quot;&gt;&lt;/i&gt;&lt;/a&gt;&lt;span&gt;&amp;nbsp;&lt;/span&gt;&lt;a style=&quot;box-sizing: border-box; color: rgb(108, 117, 125); text-decoration: none !important; background-color: transparent; display: inline-block; font-weight: 400; text-align: center; vertical-align: middle; user-select: none; border: 1px solid rgb(108, 117, 125); padding: 0.25rem 0.5rem; font-size: 0.875rem; line-height: 1.5; border-radius: 0.2rem; transition: color 0.15s ease-in-out, background-color 0.15s ease-in-out, border-color 0.15s ease-in-out, box-shadow 0.15s ease-in-out; cursor: pointer;&quot; href=&quot;http://127.0.0.1:8000/exlog/log/10/update/&quot; title=&quot;Редактировать тренировку&quot; class=&quot;btn btn-outline-secondary btn-sm&quot;&gt;&lt;i style=&quot;box-sizing: border-box; display: inline-block; font-style: normal; font-variant: normal; font-size-adjust: none; font-kerning: auto; font-optical-sizing: auto; font-feature-settings: normal; font-variation-settings: normal; font-weight: normal; font-stretch: normal; line-height: 1; font-family: FontAwesome; font-size: inherit; text-rendering: auto; -webkit-font-smoothing: antialiased;&quot; class=&quot;fa fa-edit&quot;&gt;&lt;/i&gt;&lt;/a&gt;&lt;span&gt;&amp;nbsp;&lt;/span&gt;&lt;a style=&quot;box-sizing: border-box; color: rgb(220, 53, 69); text-decoration: none !important; background-color: transparent; display: inline-block; font-weight: 400; text-align: center; vertical-align: middle; user-select: none; border: 1px solid rgb(220, 53, 69); padding: 0.25rem 0.5rem; font-size: 0.875rem; line-height: 1.5; border-radius: 0.2rem; transition: color 0.15s ease-in-out, background-color 0.15s ease-in-out, border-color 0.15s ease-in-out, box-shadow 0.15s ease-in-out; cursor: pointer;&quot; href=&quot;http://127.0.0.1:8000/exlog/log/10/delete/&quot; title=&quot;Удалить тренировку&quot; class=&quot;btn btn-outline-danger btn-sm&quot;&gt;&lt;i style=&quot;box-sizing: border-box; display: inline-block; font-style: normal; font-variant: normal; font-size-adjust: none; font-kerning: auto; font-optical-sizing: auto; font-feature-settings: normal; font-variation-settings: normal; font-weight: normal; font-stretch: normal; line-height: 1; font-family: FontAwesome; font-size: inherit; text-rendering: auto; -webkit-font-smoothing: antialiased;&quot; class=&quot;fa fa-trash&quot;&gt;&lt;/i&gt;&lt;/a&gt;&lt;/div&gt;&lt;/div&gt;&lt;div style=&quot;box-sizing: border-box;&quot; class=&quot;card-summary&quot;&gt;&lt;span style=&quot;box-sizing: border-box;&quot;&gt;&lt;i style=&quot;box-sizing: border-box; display: inline-block; font-style: normal; font-variant: normal; font-size-adjust: none; font-kerning: auto; font-optical-sizing: auto; font-feature-settings: normal; font-variation-settings: normal; font-weight: normal; font-stretch: normal; line-height: 1; font-family: FontAwesome; font-size: inherit; text-rendering: auto; -webkit-font-smoothing: antialiased;&quot; class=&quot;fa fa-dumbbell&quot;&gt;&lt;/i&gt;&lt;span&gt;&amp;nbsp;&lt;/span&gt;Упражнений: 0&lt;/span&gt;&lt;span&gt;&amp;nbsp;&lt;/span&gt;&lt;span style=&quot;box-sizing: border-box; margin-left: 1rem !important;&quot; class=&quot;ml-3&quot;&gt;&lt;i style=&quot;box-sizing: border-box; display: inline-block; font-style: normal; font-variant: normal; font-size-adjust: none; font-kerning: auto; font-optical-sizing: auto; font-feature-settings: normal; font-variation-settings: normal; font-weight: normal; font-stretch: normal; line-height: 1; font-family: FontAwesome; font-size: inherit; text-rendering: auto; -webkit-font-smoothing: antialiased;&quot; class=&quot;fa fa-clock&quot;&gt;&lt;/i&gt;&lt;span&gt;&amp;nbsp;&lt;/span&gt;1 мин&lt;/span&gt;&lt;/div&gt;&lt;div style=&quot;box-sizing: border-box; margin-bottom: 0px;&quot; class=&quot;card-text&quot;&gt;&lt;table style=&quot;box-sizing: border-box; border-collapse: collapse; width: 651.111px; margin-bottom: 1rem; color: rgb(33, 37, 41); border: 1px solid rgb(222, 226, 230);&quot; class=&quot;table table-sm table-bordered&quot;&gt;&lt;thead style=&quot;box-sizing: border-box;&quot;&gt;&lt;tr style=&quot;box-sizing: border-box;&quot;&gt;&lt;th style=&quot;box-sizing: border-box; text-align: inherit; padding: 0.3rem; vertical-align: bottom; border-width: 1px 1px 2px; border-style: solid; border-color: rgb(222, 226, 230); border-image: initial;&quot;&gt;Упражнение&lt;/th&gt;&lt;th style=&quot;box-sizing: border-box; text-align: inherit; padding: 0.3rem; vertical-align: bottom; border-width: 1px 1px 2px; border-style: solid; border-color: rgb(222, 226, 230); border-image: initial;&quot;&gt;Вес&lt;/th&gt;&lt;th style=&quot;box-sizing: border-box; text-align: inherit; padding: 0.3rem; vertical-align: bottom; border-width: 1px 1px 2px; border-style: solid; border-color: rgb(222, 226, 230); border-image: initial;&quot;&gt;Подходы&lt;/th&gt;&lt;th style=&quot;box-sizing: border-box; text-align: inherit; padding: 0.3rem; vertical-align: bottom; border-width: 1px 1px 2px; border-style: solid; border-color: rgb(222, 226, 230); border-image: initial;&quot;&gt;Повторения&lt;/th&gt;&lt;/tr&gt;&lt;/thead&gt;&lt;tbody style=&quot;box-sizing: border-box;&quot;&gt;&lt;tr style=&quot;box-sizing: border-box;&quot;&gt;&lt;td style=&quot;box-sizing: border-box; padding: 0.3rem; vertical-align: top; border: 1px solid rgb(222, 226, 230);&quot;&gt;Плавание&lt;/td&gt;&lt;td style=&quot;box-sizing: border-box; padding: 0.3rem; vertical-align: top; border: 1px solid rgb(222, 226, 230);&quot;&gt;--&lt;/td&gt;&lt;td style=&quot;box-sizing: border-box; padding: 0.3rem; vertical-align: top; border: 1px solid rgb(222, 226, 230);&quot;&gt;1&lt;/td&gt;&lt;td style=&quot;box-sizing: border-box; padding: 0.3rem; vertical-align: top; border: 1px solid rgb(222, 226, 230);&quot;&gt;1&lt;/td&gt;&lt;/tr&gt;&lt;tr style=&quot;box-sizing: border-box;&quot;&gt;&lt;td style=&quot;box-sizing: border-box; padding: 0.3rem; vertical-align: top; border: 1px solid rgb(222, 226, 230);&quot;&gt;Велоспорт&lt;/td&gt;&lt;td style=&quot;box-sizing: border-box; padding: 0.3rem; vertical-align: top; border: 1px solid rgb(222, 226, 230);&quot;&gt;--&lt;/td&gt;&lt;td style=&quot;box-sizing: border-box; padding: 0.3rem; vertical-align: top; border: 1px solid rgb(222, 226, 230);&quot;&gt;--&lt;/td&gt;&lt;td style=&quot;box-sizing: border-box; padding: 0.3rem; vertical-align: top; border: 1px solid rgb(222, 226, 230);&quot;&gt;--&lt;/td&gt;&lt;/tr&gt;&lt;tr style=&quot;box-sizing: border-box;&quot;&gt;&lt;td style=&quot;box-sizing: border-box; padding: 0.3rem; vertical-align: top; border: 1px solid rgb(222, 226, 230);&quot;&gt;Плавание&lt;/td&gt;&lt;td style=&quot;box-sizing: border-box; padding: 0.3rem; vertical-align: top; border: 1px solid rgb(222, 226, 230);&quot;&gt;--&lt;/td&gt;&lt;td style=&quot;box-sizing: border-box; padding: 0.3rem; vertical-align: top; border: 1px solid rgb(222, 226, 230);&quot;&gt;18&lt;/td&gt;&lt;td style=&quot;box-sizing: border-box; padding: 0.3rem; vertical-align: top; border: 1px solid rgb(222, 226, 230);&quot;&gt;--&lt;/td&gt;&lt;/tr&gt;&lt;/tbody&gt;&lt;/table&gt;&lt;/div&gt;&lt;/div&gt;&lt;/div&gt;&lt;div style=&quot;box-sizing: border-box; position: relative; display: flex; flex-direction: column; min-width: 0px; overflow-wrap: break-word; background-color: rgb(255, 255, 255); background-clip: border-box; border: 1px solid rgba(0, 0, 0, 0.125); border-radius: 0.25rem; margin-bottom: 1rem !important; color: rgb(51, 51, 51); font-family: -apple-system, BlinkMacSystemFont, &amp;quot;Segoe UI&amp;quot;, Roboto, &amp;quot;Helvetica Neue&amp;quot;, Arial, &amp;quot;Noto Sans&amp;quot;, sans-serif, &amp;quot;Apple Color Emoji&amp;quot;, &amp;quot;Segoe UI Emoji&amp;quot;, &amp;quot;Segoe UI Symbol&amp;quot;, &amp;quot;Noto Color Emoji&amp;quot;; font-size: 16px; font-style: normal; font-variant-ligatures: normal; font-variant-caps: normal; font-weight: 400; letter-spacing: normal; orphans: 2; text-align: left; text-indent: 0px; text-transform: none; widows: 2; word-spacing: 0px; -webkit-text-stroke-width: 0px; white-space: normal; text-decoration-thickness: initial; text-decoration-style: initial; text-decoration-color: initial;&quot; class=&quot;card mb-3&quot;&gt;&lt;div style=&quot;box-sizing: border-box; flex: 1 1 auto; min-height: 1px; padding: 1.25rem;&quot; class=&quot;card-body&quot;&gt;&lt;div style=&quot;box-sizing: border-box; margin-bottom: 0.75rem;&quot; class=&quot;card-title&quot;&gt;&lt;span style=&quot;box-sizing: border-box;&quot; class=&quot;date&quot;&gt;&lt;i style=&quot;box-sizing: border-box; display: inline-block; font-style: normal; font-variant: normal; font-size-adjust: none; font-kerning: auto; font-optical-sizing: auto; font-feature-settings: normal; font-variation-settings: normal; font-weight: normal; font-stretch: normal; line-height: 1; font-family: FontAwesome; font-size: inherit; text-rendering: auto; -webkit-font-smoothing: antialiased;&quot; class=&quot;fa fa-calendar&quot;&gt;&lt;/i&gt;&lt;span&gt;&amp;nbsp;&lt;/span&gt;22.05.2025&lt;/span&gt;&lt;div style=&quot;box-sizing: border-box;&quot; class=&quot;actions&quot;&gt;&lt;a style=&quot;box-sizing: border-box; color: rgb(0, 123, 255); text-decoration: none !important; background-color: transparent; display: inline-block; font-weight: 400; text-align: center; vertical-align: middle; user-select: none; border: 1px solid rgb(0, 123, 255); padding: 0.25rem 0.5rem; font-size: 0.875rem; line-height: 1.5; border-radius: 0.2rem; transition: color 0.15s ease-in-out, background-color 0.15s ease-in-out, border-color 0.15s ease-in-out, box-shadow 0.15s ease-in-out; cursor: pointer;&quot; href=&quot;http://127.0.0.1:8000/exlog/log/9/&quot; title=&quot;Подробности&quot; class=&quot;btn btn-outline-primary btn-sm&quot;&gt;&lt;i style=&quot;box-sizing: border-box; display: inline-block; font-style: normal; font-variant: normal; font-size-adjust: none; font-kerning: auto; font-optical-sizing: auto; font-feature-settings: normal; font-variation-settings: normal; font-weight: normal; font-stretch: normal; line-height: 1; font-family: FontAwesome; font-size: inherit; text-rendering: auto; -webkit-font-smoothing: antialiased;&quot; class=&quot;fa fa-list&quot;&gt;&lt;/i&gt;&lt;/a&gt;&lt;span&gt;&amp;nbsp;&lt;/span&gt;&lt;a style=&quot;box-sizing: border-box; color: rgb(40, 167, 69); text-decoration: none !important; background-color: transparent; display: inline-block; font-weight: 400; text-align: center; vertical-align: middle; user-select: none; border: 1px solid rgb(40, 167, 69); padding: 0.25rem 0.5rem; font-size: 0.875rem; line-height: 1.5; border-radius: 0.2rem; transition: color 0.15s ease-in-out, background-color 0.15s ease-in-out, border-color 0.15s ease-in-out, box-shadow 0.15s ease-in-out; cursor: pointer;&quot; href=&quot;http://127.0.0.1:8000/exlog/log/9/addexercise/&quot; title=&quot;Добавить упражнение&quot; class=&quot;btn btn-outline-success btn-sm&quot;&gt;&lt;i style=&quot;box-sizing: border-box; display: inline-block; font-style: normal; font-variant: normal; font-size-adjust: none; font-kerning: auto; font-optical-sizing: auto; font-feature-settings: normal; font-variation-settings: normal; font-weight: normal; font-stretch: normal; line-height: 1; font-family: FontAwesome; font-size: inherit; text-rendering: auto; -webkit-font-smoothing: antialiased;&quot; class=&quot;fa fa-plus&quot;&gt;&lt;/i&gt;&lt;/a&gt;&lt;span&gt;&amp;nbsp;&lt;/span&gt;&lt;a style=&quot;box-sizing: border-box; color: rgb(108, 117, 125); text-decoration: none !important; background-color: transparent; display: inline-block; font-weight: 400; text-align: center; vertical-align: middle; user-select: none; border: 1px solid rgb(108, 117, 125); padding: 0.25rem 0.5rem; font-size: 0.875rem; line-height: 1.5; border-radius: 0.2rem; transition: color 0.15s ease-in-out, background-color 0.15s ease-in-out, border-color 0.15s ease-in-out, box-shadow 0.15s ease-in-out; cursor: pointer;&quot; href=&quot;http://127.0.0.1:8000/exlog/log/9/update/&quot; title=&quot;Редактировать тренировку&quot; class=&quot;btn btn-outline-secondary btn-sm&quot;&gt;&lt;i style=&quot;box-sizing: border-box; display: inline-block; font-style: normal; font-variant: normal; font-size-adjust: none; font-kerning: auto; font-optical-sizing: auto; font-feature-settings: normal; font-variation-settings: normal; font-weight: normal; font-stretch: normal; line-height: 1; font-family: FontAwesome; font-size: inherit; text-rendering: auto; -webkit-font-smoothing: antialiased;&quot; class=&quot;fa fa-edit&quot;&gt;&lt;/i&gt;&lt;/a&gt;&lt;span&gt;&amp;nbsp;&lt;/span&gt;&lt;a style=&quot;box-sizing: border-box; color: rgb(220, 53, 69); text-decoration: none !important; background-color: transparent; display: inline-block; font-weight: 400; text-align: center; vertical-align: middle; user-select: none; border: 1px solid rgb(220, 53, 69); padding: 0.25rem 0.5rem; font-size: 0.875rem; line-height: 1.5; border-radius: 0.2rem; transition: color 0.15s ease-in-out, background-color 0.15s ease-in-out, border-color 0.15s ease-in-out, box-shadow 0.15s ease-in-out; cursor: pointer;&quot; href=&quot;http://127.0.0.1:8000/exlog/log/9/delete/&quot; title=&quot;Удалить тренировку&quot; class=&quot;btn btn-outline-danger btn-sm&quot;&gt;&lt;i style=&quot;box-sizing: border-box; display: inline-block; font-style: normal; font-variant: normal; font-size-adjust: none; font-kerning: auto; font-optical-sizing: auto; font-feature-settings: normal; font-variation-settings: normal; font-weight: normal; font-stretch: normal; line-height: 1; font-family: FontAwesome; font-size: inherit; text-rendering: auto; -webkit-font-smoothing: antialiased;&quot; class=&quot;fa fa-trash&quot;&gt;&lt;/i&gt;&lt;/a&gt;&lt;/div&gt;&lt;/div&gt;&lt;div style=&quot;box-sizing: border-box;&quot; class=&quot;card-summary&quot;&gt;&lt;span style=&quot;box-sizing: border-box;&quot;&gt;&lt;i style=&quot;box-sizing: border-box; display: inline-block; font-style: normal; font-variant: normal; font-size-adjust: none; font-kerning: auto; font-optical-sizing: auto; font-feature-settings: normal; font-variation-settings: normal; font-weight: normal; font-stretch: normal; line-height: 1; font-family: FontAwesome; font-size: inherit; text-rendering: auto; -webkit-font-smoothing: antialiased;&quot; class=&quot;fa fa-dumbbell&quot;&gt;&lt;/i&gt;&lt;span&gt;&amp;nbsp;&lt;/span&gt;Упражнений: 0&lt;/span&gt;&lt;/div&gt;&lt;div style=&quot;box-sizing: border-box; margin-bottom: 0px;&quot; class=&quot;card-text&quot;&gt;&lt;table style=&quot;box-sizing: border-box; border-collapse: collapse; width: 651.111px; margin-bottom: 1rem; color: rgb(33, 37, 41); border: 1px solid rgb(222, 226, 230);&quot; class=&quot;table table-sm table-bordered&quot;&gt;&lt;thead style=&quot;box-sizing: border-box;&quot;&gt;&lt;tr style=&quot;box-sizing: border-box;&quot;&gt;&lt;th style=&quot;box-sizing: border-box; text-align: inherit; padding: 0.3rem; vertical-align: bottom; border-width: 1px 1px 2px; border-style: solid; border-color: rgb(222, 226, 230); border-image: initial;&quot;&gt;Упражнение&lt;/th&gt;&lt;th style=&quot;box-sizing: border-box; text-align: inherit; padding: 0.3rem; vertical-align: bottom; border-width: 1px 1px 2px; border-style: solid; border-color: rgb(222, 226, 230); border-image: initial;&quot;&gt;Вес&lt;/th&gt;&lt;th style=&quot;box-sizing: border-box; text-align: inherit; padding: 0.3rem; vertical-align: bottom; border-width: 1px 1px 2px; border-style: solid; border-color: rgb(222, 226, 230); border-image: initial;&quot;&gt;Подходы&lt;/th&gt;&lt;th style=&quot;box-sizing: border-box; text-align: inherit; padding: 0.3rem; vertical-align: bottom; border-width: 1px 1px 2px; border-style: solid; border-color: rgb(222, 226, 230); border-image: initial;&quot;&gt;Повторения&lt;/th&gt;&lt;/tr&gt;&lt;/thead&gt;&lt;tbody style=&quot;box-sizing: border-box;&quot;&gt;&lt;tr style=&quot;box-sizing: border-box;&quot;&gt;&lt;td style=&quot;box-sizing: border-box; padding: 0.3rem; vertical-align: top; border: 1px solid rgb(222, 226, 230);&quot;&gt;Разгибание бедра&lt;/td&gt;&lt;td style=&quot;box-sizing: border-box; padding: 0.3rem; vertical-align: top; border: 1px solid rgb(222, 226, 230);&quot;&gt;1 кг&lt;/td&gt;&lt;td style=&quot;box-sizing: border-box; padding: 0.3rem; vertical-align: top; border: 1px solid rgb(222, 226, 230);&quot;&gt;1&lt;/td&gt;&lt;td style=&quot;box-sizing: border-box; padding: 0.3rem; vertical-align: top; border: 1px solid rgb(222, 226, 230);&quot;&gt;1&lt;/td&gt;&lt;/tr&gt;&lt;tr style=&quot;box-sizing: border-box;&quot;&gt;&lt;td style=&quot;box-sizing: border-box; padding: 0.3rem; vertical-align: top; border: 1px solid rgb(222, 226, 230);&quot;&gt;Сгибания рук на наклонной скамье&lt;/td&gt;&lt;td style=&quot;box-sizing: border-box; padding: 0.3rem; vertical-align: top; border: 1px solid rgb(222, 226, 230);&quot;&gt;--&lt;/td&gt;&lt;td style=&quot;box-sizing: border-box; padding: 0.3rem; vertical-align: top; border: 1px solid rgb(222, 226, 230);&quot;&gt;--&lt;/td&gt;&lt;td style=&quot;box-sizing: border-box; padding: 0.3rem; vertical-align: top; border: 1px solid rgb(222, 226, 230);&quot;&gt;--&lt;/td&gt;&lt;/tr&gt;&lt;tr style=&quot;box-sizing: border-box;&quot;&gt;&lt;td style=&quot;box-sizing: border-box; padding: 0.3rem; vertical-align: top; border: 1px solid rgb(222, 226, 230);&quot;&gt;Отжимания&lt;/td&gt;&lt;td style=&quot;box-sizing: border-box; padding: 0.3rem; vertical-align: top; border: 1px solid rgb(222, 226, 230);&quot;&gt;--&lt;/td&gt;&lt;td style=&quot;box-sizing: border-box; padding: 0.3rem; vertical-align: top; border: 1px solid rgb(222, 226, 230);&quot;&gt;--&lt;/td&gt;&lt;td style=&quot;box-sizing: border-box; padding: 0.3rem; vertical-align: top; border: 1px solid rgb(222, 226, 230);&quot;&gt;--&lt;/td&gt;&lt;/tr&gt;&lt;/tbody&gt;&lt;/table&gt;&lt;/div&gt;&lt;/div&gt;&lt;/div&gt;&#xa;&#xa;" style="rounded=0;whiteSpace=wrap;html=1;" vertex="1" parent="1">
          <mxGeometry x="570" y="100" width="905" height="760" as="geometry" />
        </mxCell>
        <mxCell id="ZbcpjQBcdrtAO-jrBeKX-2" value="Логотип" style="ellipse;whiteSpace=wrap;html=1;aspect=fixed;" vertex="1" parent="1">
          <mxGeometry x="590" y="103.75" width="70" height="70" as="geometry" />
        </mxCell>
        <mxCell id="ZbcpjQBcdrtAO-jrBeKX-3" value="" style="rounded=0;whiteSpace=wrap;html=1;" vertex="1" parent="1">
          <mxGeometry x="730" y="123.75" width="700" height="50" as="geometry" />
        </mxCell>
        <mxCell id="ZbcpjQBcdrtAO-jrBeKX-4" value="Главная" style="text;html=1;align=center;verticalAlign=middle;whiteSpace=wrap;rounded=0;" vertex="1" parent="1">
          <mxGeometry x="740" y="133.75" width="60" height="30" as="geometry" />
        </mxCell>
        <mxCell id="ZbcpjQBcdrtAO-jrBeKX-5" value="Упражнения" style="text;html=1;align=center;verticalAlign=middle;whiteSpace=wrap;rounded=0;" vertex="1" parent="1">
          <mxGeometry x="820" y="133.75" width="60" height="30" as="geometry" />
        </mxCell>
        <mxCell id="ZbcpjQBcdrtAO-jrBeKX-6" value="Журнал тренировок" style="text;html=1;align=center;verticalAlign=middle;whiteSpace=wrap;rounded=0;" vertex="1" parent="1">
          <mxGeometry x="890" y="133.75" width="130" height="30" as="geometry" />
        </mxCell>
        <mxCell id="ZbcpjQBcdrtAO-jrBeKX-7" value="Весовой журнал" style="text;html=1;align=center;verticalAlign=middle;whiteSpace=wrap;rounded=0;" vertex="1" parent="1">
          <mxGeometry x="1010" y="133.75" width="110" height="33.75" as="geometry" />
        </mxCell>
        <mxCell id="ZbcpjQBcdrtAO-jrBeKX-8" value="Весовой журнал" style="text;html=1;align=center;verticalAlign=middle;whiteSpace=wrap;rounded=0;" vertex="1" parent="1">
          <mxGeometry x="1110" y="139.38" width="120" height="22.5" as="geometry" />
        </mxCell>
        <mxCell id="ZbcpjQBcdrtAO-jrBeKX-9" value="Трекер питания" style="text;html=1;align=center;verticalAlign=middle;whiteSpace=wrap;rounded=0;" vertex="1" parent="1">
          <mxGeometry x="1230" y="129.38" width="90" height="42.5" as="geometry" />
        </mxCell>
        <mxCell id="ZbcpjQBcdrtAO-jrBeKX-10" value="Результаты" style="text;html=1;align=center;verticalAlign=middle;whiteSpace=wrap;rounded=0;" vertex="1" parent="1">
          <mxGeometry x="1340" y="139.38" width="60" height="30" as="geometry" />
        </mxCell>
        <mxCell id="ZbcpjQBcdrtAO-jrBeKX-12" value="© 2025 Active Life, Inc. Все права защищены." style="rounded=0;whiteSpace=wrap;html=1;" vertex="1" parent="1">
          <mxGeometry x="730" y="790" width="700" height="70" as="geometry" />
        </mxCell>
      </root>
    </mxGraphModel>
  </diagram>
</mxfile>
